<?xml version="1.0" encoding="UTF-8"?>
<svg id="Layer_1" data-name="Layer 1" xmlns="http://www.w3.org/2000/svg" viewBox="75.76 68.23 360.48 375.55">
  <defs>
    <style>
      .cls-1 {
        fill: #000;
        stroke-width: 0px;
      }
    </style>
  </defs>
  <path class="cls-1" d="M157.67,337.05c-10.59,10.13-24.66,21.12-26.07,36.33.73,2.42-.69,3.56-2.88,3.11-17.26-5.39-32.99-20.7-34.34-39.34.23-11.81,5.98-14.13,1.76-26.65,7.74-10.3,54.11,18.6,61.53,26.55Z"/>
  <path class="cls-1" d="M436.24,114.08c-1.9.51-3.7.91-5.59,1.1-.83.09-1.68.13-2.56.13-5.49-.01-11.08-.77-16.5-1.62-5.22-.81-10.4-1.89-15.52-3.16-10.31-2.56-20.4-5.88-30.41-9.4-10.07-3.54-20.06-7.28-30.17-10.68-10.06-3.39-20.26-6.44-30.66-8.59-3.22-.66-6.46-1.26-9.72-1.71-28.65-3.97-60.84-3.51-86.32,11.39-3.48-7.66,5.09-16.76,8.61-23.31-49.24,17.94-101.15,62.37-90.81,119.93-12.6,26.8-31.46,51.89-50.83,74.54,11.03,1.76,21.89,1.5,31.61,6.88-19.12,4.41-13.34,19.8-29.33,9.81-.2.17-.4.33-.6.5,2.7,5.97,2.52,17.2,11.33,16.9,51.76,19.6,134,26.97,145.22-44.77,31.43,33.73-8.83,72.59-37.89,91.12-6.6,4.26-13.69,7.67-20.62,11.35-8.15,4.33-15,9.42-18.85,18.09-1.11,2.5-1.92,5.13-2.43,7.81-.51,2.68-.72,5.42-.64,8.15.08,2.76.45,5.51,1.1,8.19.65,2.72,1.59,5.38,2.77,7.91.6,1.28,1.26,2.54,1.98,3.76.74,1.25,1.55,2.45,2.42,3.62.41.55.84,1.09,1.29,1.62.44.5.89,1.05,1.43,1.43.09.06.18.13.27.18l-.1-.68c-2.47-25.45,21.87-41.93,40.94-53.77,4.11-2.25,8.33-6.18,13.34-4.73-1.18-.34-5.39,2.57-6.52,3.18-2.08,1.1-4.12,2.28-6.1,3.55-3.57,2.28-6.98,4.84-10.07,7.74-5.09,4.78-9.41,10.59-11.56,17.3-4.64,14.47,2.82,27.98,13.28,37.73,7.01,6.53,15.52,11.45,24.7,14.21,10.05,3.02,21.03,3.48,31.46,3.8,3.7.11,7.4.16,11.09.2-15.54-9.03-16.69-25.55-7.65-40.29,5.67-9.26,14.12-16.41,22.08-23.78,19.33-17.9,38.87-40.21,44.47-66.76,5.79-27.44-14.53-51.26-28.59-72.55,58.7,32.63,62.38,109.45,48.82,167.62,80.79-100.37,85.47-199.56-60.11-227.18,48.38-1.39,102.25,25.4,130.09,65.45-2.36-24.13-15.51-47.95-29.32-67.69-1.36-1.94-2.97-3.75-4.5-5.54-1.57-1.83-3.18-3.61-4.86-5.33-3.41-3.51-7.07-6.82-11.01-9.73-.08-.06-.16-.12-.24-.17-3.13-2.28-6.61-4.41-8.78-7.72,29.28.85,68.27-5.04,80.56-36.02ZM181.24,220.94c-14.3,11.38-36.73.06-49.29,15.46-.35.36-3.38,4.13-3.48,4.1,3.81-7.19,9.2-13.87,15.26-19.27,4-3.57,8.51-6.66,13.59-8.46,5.65-2,13.55-2.8,19.4-1.38,2,.49,4.38,1.33,5.48,3.21,1,1.7.68,5.05-.96,6.35ZM280.33,202.31c-.54,5.94-3.29,11.83-1.89,17.85,1.55,1.82-20.26-23.12-34-28.91.75-1.77,13.2-4.66,13.2-4.66,0,0-19.26-10.14-30.12-12.82.01-22.58,36.62-29.88,50.19-15.39-7.99-1.8-17.09-1.65-24.14,2.98,17.85,4.89,28.77,22.8,26.75,40.95Z"/>
</svg>
